<svg xmlns="http://www.w3.org/2000/svg" width="44" height="24" viewBox="0 0 44 24" fill="none">
  <path d="M42.4636 4.07167C42.4636 4.48376 42.3203 4.83315 42.0336 5.11982C41.7469 5.4065 41.3975 5.54983 40.9854 5.54983C40.5823 5.54983 40.2374 5.4065 39.9507 5.11982C39.673 4.82419 39.5341 4.4748 39.5341 4.07167C39.5341 3.66853 39.673 3.32363 39.9507 3.03695C40.2374 2.74132 40.5823 2.59351 40.9854 2.59351C41.3975 2.59351 41.7469 2.73684 42.0336 3.02352C42.3203 3.31019 42.4636 3.65958 42.4636 4.07167ZM39.1041 4.07167C39.1041 4.4748 38.9608 4.82419 38.6741 5.11982C38.3874 5.4065 38.0425 5.54983 37.6394 5.54983C37.2363 5.54983 36.8914 5.4065 36.6047 5.11982C36.318 4.82419 36.1747 4.4748 36.1747 4.07167C36.1747 3.66853 36.318 3.32363 36.6047 3.03695C36.8914 2.74132 37.2363 2.59351 37.6394 2.59351C38.0425 2.59351 38.3874 2.74132 38.6741 3.03695C38.9608 3.32363 39.1041 3.66853 39.1041 4.07167ZM43.5789 13.1019C43.5789 14.5442 42.7951 15.2654 41.2273 15.2654H31.2296V12.3628H34.5353V8.77492C34.5353 7.33259 35.3191 6.61142 36.8869 6.61142H41.2273C42.7951 6.61142 43.5789 7.33259 43.5789 8.77492V13.1019ZM40.5554 11.6506V10.1993C40.5554 9.73348 40.3001 9.50056 39.7895 9.50056H38.271C37.7603 9.50056 37.505 9.73348 37.505 10.1993V11.6506C37.505 12.1254 37.7603 12.3628 38.271 12.3628H39.7895C40.3001 12.3628 40.5554 12.1254 40.5554 11.6506Z" fill="#151515"/>
  <path d="M32.0089 15.2654H29.738C27.7581 15.2654 26.7682 14.3113 26.7682 12.4031V0H29.7245V11.0728C29.7245 11.9418 30.2217 12.3763 31.2161 12.3763H32.0089V15.2654Z" fill="#151515"/>
  <path d="M24.3897 18.4502C24.3897 20.3763 23.4446 21.3393 21.5543 21.3393H15.3326V18.4636H20.3852C21.075 18.4636 21.4199 18.1277 21.4199 17.4558V15.2654H17.6976C16.1299 15.2654 15.346 14.5487 15.346 13.1153V8.78836C15.346 7.34603 16.1299 6.62486 17.6976 6.62486H22.0381C23.6058 6.62486 24.3897 7.34603 24.3897 8.78836V18.4502ZM21.3931 11.6506V10.1993C21.3931 9.73349 21.1333 9.50056 20.6137 9.50056H19.0952C18.5666 9.50056 18.3023 9.73349 18.3023 10.1993V11.6506C18.3023 12.1344 18.5666 12.3763 19.0952 12.3763H20.6137C21.1333 12.3763 21.3931 12.1344 21.3931 11.6506Z" fill="#151515"/>
  <path d="M12.9539 13.1019C12.9539 14.5442 12.17 15.2654 10.6022 15.2654H4.74334C3.74894 15.2654 3.25174 15.7402 3.25174 16.6898V24H0.29541V15.252C0.29541 13.3348 1.27189 12.3763 3.22486 12.3763H3.91019V6.61142H10.6022C12.17 6.61142 12.9539 7.33706 12.9539 8.78835V13.1019ZM9.93035 11.6641V10.1993C9.93035 9.73348 9.67503 9.50056 9.16439 9.50056H6.94715V12.3763H9.16439C9.67503 12.3763 9.93035 12.1389 9.93035 11.6641Z" fill="#151515"/>
</svg>