<svg xmlns="http://www.w3.org/2000/svg" width="49" height="40" viewBox="0 0 49 40" fill="none">
  <path d="M32.5967 15.7494C32.5106 16.2055 32.439 16.665 32.3325 17.1162C32.2797 17.3398 32.246 17.4872 32.5527 17.46C32.827 17.4357 33.1062 17.4517 33.3776 17.4113C34.25 17.2813 34.9807 17.4668 35.4481 18.2927L35.4427 18.2854C35.3795 18.798 35.3422 19.3159 35.2424 19.8213C35.1887 20.0931 35.2581 20.1814 35.5021 20.1536C35.8806 20.1104 36.2612 20.0689 36.6332 19.9901C37.3327 19.842 37.9709 20.351 38.1431 20.7866C38.2291 21.004 38.2027 21.2984 38.1422 21.5359C38.0348 21.9577 37.8628 22.3627 37.6924 22.8468C37.9374 22.7947 38.1391 22.7474 38.3426 22.7098C38.63 22.6566 38.9171 22.5886 39.2072 22.5678C39.5061 22.5464 39.6988 22.7513 39.843 22.9866C39.8827 23.0516 39.8906 23.1805 39.8527 23.2426C39.4451 23.911 39.0257 24.5719 38.6078 25.2339C38.6004 25.2458 38.5729 25.2447 38.5057 25.2632C38.6385 24.8692 38.7646 24.5024 38.8858 24.134C38.9961 23.7991 38.9305 23.6578 38.6289 23.4992C38.3875 23.3721 38.198 23.3798 38.0067 23.6077C37.8795 23.7592 37.7098 23.9187 37.5293 23.9718C37.0638 24.1086 36.5778 23.648 36.6734 23.1437C36.7695 22.6372 36.9227 22.1385 37.0927 21.6512C37.1637 21.4478 37.1707 21.3262 36.9852 21.2116C36.7589 21.0717 36.546 20.9074 36.3117 20.7837C36.0836 20.6633 35.8435 20.6199 35.6609 20.8855C35.6265 20.9355 35.5731 20.972 35.5301 21.0163C35.1722 21.386 35.0247 21.4259 34.681 21.2449C34.2959 21.0421 34.0519 20.6205 34.1286 20.2511C34.2125 19.847 34.3199 19.448 34.41 19.0451C34.4285 18.9622 34.4533 18.8361 34.411 18.791C34.0401 18.3951 33.6007 18.0981 33.0504 18.0532C32.9088 18.0417 32.7195 18.1509 32.614 18.2636C32.4079 18.4836 32.2 18.6309 31.8965 18.5109C31.541 18.3705 31.2338 18.1424 31.2342 17.7324C31.2346 17.3986 31.3187 17.0548 31.4216 16.7335C31.5917 16.202 31.5375 16.0054 31.047 15.7199C30.9588 15.6685 30.8671 15.6231 30.7545 15.5629C30.9118 15.3004 31.0385 15.0335 31.221 14.8138C31.2855 14.7363 31.5356 14.709 31.6164 14.7709C31.9148 14.9996 32.1806 15.2725 32.4524 15.5353C32.5161 15.597 32.5554 15.6843 32.6059 15.7598L32.5965 15.7495L32.5967 15.7494Z" fill="#828282"/>
  <path d="M37.0702 27.0922C36.7243 28.0896 36.1437 29.0495 35.3361 29.7659C35.2778 29.5789 35.223 29.4036 35.1868 29.2875C34.996 29.4185 34.7927 29.5938 34.5608 29.709C34.2044 29.8861 33.8296 30.025 33.4591 30.171C33.416 30.188 33.3058 30.152 33.3038 30.1326C33.2917 30.0126 33.259 29.8619 33.3142 29.7752C33.4075 29.6287 33.5443 29.4927 33.6926 29.4046C34.0969 29.1642 34.5137 28.9445 34.9333 28.7329C35.0131 28.6927 35.1288 28.7271 35.2497 28.7271C35.4039 28.4061 35.5981 28.0117 35.7808 27.6118C35.8111 27.5452 35.8242 27.4092 35.7889 27.3823C35.4946 27.1582 35.2602 26.7948 34.826 26.862C34.6961 26.8821 34.5638 26.9709 34.4589 27.0603C34.1238 27.3459 33.8764 27.4041 33.5686 27.2412C33.2165 27.0549 33.0158 26.698 33.0964 26.2975C33.1625 25.9688 33.283 25.6506 33.3921 25.3322C33.4456 25.1763 33.5476 25.036 33.5899 24.8782C33.6134 24.7904 33.5908 24.6528 33.5341 24.5873C33.4199 24.4553 33.2739 24.3488 33.1309 24.2464C32.4918 23.7884 32.4885 23.7878 31.893 24.269C31.6981 24.4265 31.5071 24.5463 31.2582 24.3902C30.9427 24.1921 30.6138 23.9591 30.6792 23.5426C30.7562 23.0513 30.9091 22.567 31.0785 22.0983C31.1679 21.8511 31.1433 21.7011 30.9377 21.5656C30.886 21.5316 30.8386 21.4903 30.7912 21.4501C30.3884 21.1093 29.9617 21.0717 29.5111 21.3373C29.4709 21.361 29.4236 21.3722 29.351 21.4002C29.4212 21.1251 29.4805 20.8816 29.5475 20.6402C29.5603 20.594 29.598 20.5256 29.6328 20.5197C30.2812 20.4093 30.9399 20.162 31.5611 20.6062C31.7207 20.7204 31.8678 20.8576 32.0027 21.0016C32.2444 21.2596 32.3536 21.5473 32.2036 21.9112C32.0396 22.309 31.9067 22.7203 31.7637 23.127C31.7505 23.1642 31.7619 23.2104 31.7619 23.3315C32.1972 23.3092 32.6209 23.2897 33.0442 23.2654C33.455 23.2417 33.8555 23.2296 34.1895 23.5515C34.8322 24.1709 34.8536 24.3874 34.5006 25.2483C34.3731 25.5594 34.2593 25.8763 34.111 26.2646C34.6512 26.2309 35.0955 26.2275 35.5331 26.1705C36.2345 26.079 36.735 26.324 37.0205 26.9947C37.0371 27.0273 37.0538 27.0598 37.0703 27.0924L37.0702 27.0922Z" fill="#828282"/>
  <path d="M33.5614 29.8993C33.2155 30.8966 32.6349 31.8565 31.8273 32.5729C31.769 32.386 31.7143 32.2106 31.678 32.0945C31.4872 32.2255 31.2839 32.4008 31.052 32.5161C30.6957 32.6931 30.3208 32.832 29.9503 32.978C29.9073 32.995 29.797 32.9591 29.795 32.9396C29.7829 32.8196 29.7502 32.6689 29.8054 32.5822C29.8987 32.4357 30.0355 32.2997 30.1838 32.2116C30.5882 31.9712 31.0049 31.7516 31.4245 31.5399C31.5043 31.4998 31.62 31.5342 31.7409 31.5342C31.8951 31.2131 32.0893 30.8187 32.272 30.4188C32.3023 30.3523 32.3154 30.2162 32.2801 30.1894C31.9858 29.9652 31.7514 29.6018 31.3172 29.669C31.1873 29.6891 31.0551 29.7779 30.9501 29.8673C30.615 30.1529 30.3676 30.2111 30.0599 30.0483C29.7077 29.8619 29.507 29.5051 29.5876 29.1045C29.6537 28.7759 29.7742 28.4576 29.8834 28.1393C29.9369 27.9833 30.0388 27.8431 30.0811 27.6852C30.1046 27.5974 30.0821 27.4598 30.0254 27.3943C29.9111 27.2623 29.7651 27.1558 29.6221 27.0534C28.983 26.5955 28.9797 26.5948 28.3842 27.0761C28.1893 27.2335 27.9983 27.3534 27.7495 27.1972C27.4339 26.9991 27.1051 26.7662 27.1704 26.3496C27.2474 25.8583 27.4003 25.374 27.5698 24.9054C27.6591 24.6582 27.6345 24.5081 27.4289 24.3726C27.3772 24.3386 27.3298 24.2973 27.2824 24.2572C26.8796 23.9163 26.4529 23.8787 26.0024 24.1444C25.9621 24.1681 25.9148 24.1792 25.8422 24.2072C25.9124 23.9322 25.9717 23.6886 26.0387 23.4473C26.0515 23.4011 26.0892 23.3326 26.124 23.3267C26.7724 23.2163 27.4311 22.969 28.0523 23.4132C28.2119 23.5274 28.359 23.6646 28.494 23.8087C28.7356 24.0666 28.8448 24.3543 28.6948 24.7182C28.5308 25.116 28.3979 25.5273 28.2549 25.934C28.2418 25.9712 28.2531 26.0174 28.2531 26.1386C28.6885 26.1163 29.1121 26.0967 29.5354 26.0724C29.9462 26.0487 30.3467 26.0366 30.6807 26.3585C31.3234 26.9779 31.3448 27.1944 30.9918 28.0554C30.8643 28.3664 30.7505 28.6834 30.6022 29.0716C31.1424 29.038 31.5867 29.0346 32.0243 28.9775C32.7257 28.886 33.2262 29.131 33.5117 29.8018C33.5283 29.8343 33.545 29.8668 33.5615 29.8994L33.5614 29.8993Z" fill="#828282"/>
  <path d="M29.3509 30.8212C29.005 31.7473 28.4244 32.6387 27.6168 33.3039C27.5585 33.1303 27.5037 32.9675 27.4675 32.8597C27.2767 32.9813 27.0734 33.1441 26.8415 33.2511C26.4851 33.4155 26.1103 33.5445 25.7398 33.6801C25.6967 33.6959 25.5865 33.6625 25.5845 33.6444C25.5724 33.533 25.5397 33.393 25.5949 33.3126C25.6882 33.1765 25.825 33.0503 25.9733 32.9684C26.3776 32.7452 26.7944 32.5412 27.214 32.3447C27.2938 32.3074 27.4095 32.3394 27.5304 32.3394C27.6846 32.0412 27.8788 31.675 28.0615 31.3037C28.0918 31.2419 28.1049 31.1155 28.0696 31.0906C27.7753 30.8825 27.5409 30.545 27.1067 30.6074C26.9768 30.6261 26.8445 30.7085 26.7396 30.7916C26.4045 31.0568 26.1571 31.1108 25.8493 30.9596C25.4972 30.7866 25.2965 30.4552 25.3771 30.0833C25.4432 29.7781 25.5637 29.4826 25.6728 29.187C25.7263 29.0421 25.8283 28.9119 25.8706 28.7653C25.8941 28.6838 25.8716 28.5561 25.8148 28.4952C25.7006 28.3726 25.5546 28.2738 25.4116 28.1786C24.7725 27.7534 24.7692 27.7528 24.1737 28.1997C23.9788 28.3459 23.7878 28.4572 23.5389 28.3122C23.2234 28.1283 22.8945 27.9119 22.9599 27.5251C23.0369 27.0689 23.1898 26.6193 23.3592 26.184C23.4486 25.9545 23.424 25.8152 23.2184 25.6893C23.1667 25.6578 23.1193 25.6194 23.0719 25.5822C22.6691 25.2656 22.2424 25.2307 21.7918 25.4774C21.7516 25.4994 21.7043 25.5098 21.6317 25.5358C21.7019 25.2804 21.7612 25.0542 21.8282 24.8301C21.841 24.7872 21.8787 24.7236 21.9135 24.7181C22.5619 24.6157 23.2206 24.386 23.8418 24.7985C24.0014 24.9045 24.1485 25.0319 24.2834 25.1657C24.5251 25.4052 24.6343 25.6723 24.4843 26.0102C24.3203 26.3797 24.1874 26.7616 24.0444 27.1392C24.0312 27.1738 24.0426 27.2167 24.0426 27.3292C24.4779 27.3085 24.9016 27.2903 25.3249 27.2677C25.7357 27.2458 26.1362 27.2345 26.4702 27.5334C27.1129 28.1086 27.1343 28.3096 26.7813 29.109C26.6538 29.3979 26.54 29.6922 26.3917 30.0527C26.9319 30.0215 27.3762 30.0183 27.8138 29.9653C28.5152 29.8804 29.0157 30.1078 29.3012 30.7307C29.3178 30.7609 29.3345 30.7911 29.351 30.8214L29.3509 30.8212Z" fill="#828282"/>
  <path d="M40.4756 19.8315C40.9126 19.7645 42.3881 20.1272 42.6843 20.3509V19.964C42.397 19.2946 41.8932 19.0501 41.1872 19.1414C40.7468 19.1984 40.2996 19.2018 39.7559 19.2353C39.9052 18.8479 40.0197 18.5315 40.1481 18.2211C40.5033 17.3619 40.4818 17.1458 39.835 16.5276C39.4988 16.2064 39.0957 16.2185 38.6822 16.242C38.2561 16.2663 37.8297 16.2858 37.3916 16.3081C37.3916 16.1872 37.3801 16.1411 37.3933 16.104C37.5373 15.6981 37.671 15.2876 37.8361 14.8905C37.9871 14.5273 37.8772 14.2402 37.634 13.9828C37.4981 13.839 37.3501 13.7021 37.1895 13.5882C36.5642 13.1448 35.9013 13.3917 35.2486 13.5018C35.2136 13.5077 35.1756 13.576 35.1627 13.6221C35.0954 13.863 35.0357 14.1061 34.965 14.3806C35.0381 14.3526 35.0857 14.3415 35.1262 14.3179C35.5797 14.0527 36.0092 14.0902 36.4145 14.4304C36.4623 14.4705 36.51 14.5117 36.562 14.5456C36.769 14.6809 36.7937 14.8306 36.7038 15.0773C36.5333 15.5451 36.3794 16.0284 36.3018 16.5187C36.2361 16.9345 36.567 17.167 36.8846 17.3646C37.1351 17.5205 37.3274 17.4009 37.5235 17.2437C38.1229 16.7634 38.1262 16.7641 38.7695 17.2211C38.9133 17.3233 39.0604 17.4296 39.1753 17.5613C39.2324 17.6267 39.2551 17.7641 39.2314 17.8516C39.1888 18.0092 39.0862 18.1492 39.0324 18.3048C38.9226 18.6226 38.8012 18.9402 38.7347 19.2682C38.6536 19.6679 38.8556 20.0241 39.21 20.21C39.5198 20.3726 39.7688 20.3145 40.1061 20.0294C40.2117 19.9402 40.3448 19.8516 40.4756 19.8315Z" fill="#828282"/>
  <path d="M40.5791 33.6166C40.7932 33.2084 40.9695 32.7754 41.2278 32.3962C42.4177 30.6486 44.0379 29.5874 46.2227 29.4786C46.9464 29.4425 47.0395 29.5962 46.7214 30.2332C46.1315 31.4145 45.1933 32.2396 43.9947 32.789C42.9385 33.2731 41.7999 33.469 40.6683 33.6842C40.6386 33.6617 40.6088 33.6392 40.5791 33.6166Z" fill="#1F1F1F"/>
  <path d="M40.5791 35.0877C41.3824 35.2623 42.0496 35.5648 42.6549 35.9811C43.8948 36.834 44.6195 37.9526 44.7761 39.3601C44.7793 39.3891 44.783 39.4183 44.7848 39.4474C44.8188 40.0068 44.6821 40.1044 44.1007 39.9053C42.0236 39.1937 40.9629 37.7741 40.6498 35.8426C40.6115 35.6065 40.6044 35.3663 40.5791 35.0877Z" fill="#1F1F1F"/>
  <path d="M34.965 34.3189C35.0419 33.9339 35.0709 33.5344 35.2039 33.1661C35.8682 31.3271 37.1798 30.0724 39.2569 29.5357C39.8156 29.3913 39.9311 29.481 39.8573 29.997C39.5931 31.8456 38.4208 33.0637 36.6209 33.8299C36.116 34.0448 35.5817 34.2021 35.0609 34.386C35.029 34.3636 34.997 34.3412 34.965 34.3189Z" fill="#1F1F1F"/>
  <path d="M39.8773 35.8279C39.708 36.1684 39.5657 36.5046 39.3812 36.8177C38.3288 38.6038 36.6789 39.3414 34.5961 39.2963C34.2905 39.2897 34.197 39.1412 34.3088 38.8599C34.6638 37.9668 35.3017 37.2873 36.1261 36.7822C37.1467 36.1568 38.283 35.8506 39.4912 35.791C39.5672 35.7873 39.6437 35.7909 39.7198 35.7946C39.751 35.7961 39.7817 35.8072 39.8773 35.8279Z" fill="#1F1F1F"/>
  <path d="M41.2808 34.487C36.3203 34.869 31.8027 36.7969 27.2457 38.5965C27.852 37.8666 31.9398 35.776 33.8684 35.2082C35.9303 34.6012 39.9681 34.1845 41.2808 34.487Z" fill="#1F1F1F"/>
  <path d="M29.8387 18.6193C30.3429 18.2593 30.831 17.9108 31.3449 17.5439C31.5591 18.075 31.4693 18.4419 31.0314 18.7158C30.7306 18.904 30.3528 18.9969 30.0448 19.1782C29.8606 19.2865 29.7447 19.4832 29.5897 19.6491C29.514 19.1192 29.4395 18.5967 29.351 17.9777C29.5439 18.2315 29.6882 18.4213 29.8386 18.6193H29.8387Z" fill="#828282"/>
  <path d="M32.8672 16.0745C32.8486 15.7598 32.9954 15.5532 33.1643 15.4204C33.4871 15.1667 33.831 14.9619 34.1661 14.7368C34.3408 15.2074 34.2823 15.4011 33.9722 15.5835C33.7232 15.73 33.4792 15.8937 33.2395 16.0662C33.1061 16.1622 32.9859 16.1689 32.8598 16.0634C32.8599 16.0638 32.8672 16.0745 32.8672 16.0745Z" fill="#828282"/>
  <path d="M32.8508 25.965C32.8745 26.5158 32.8782 26.8032 32.5097 26.9447C32.2308 27.0518 31.9656 27.2277 31.6901 27.3551C31.6204 27.3874 31.5347 27.3514 31.4563 27.3469C31.4748 27.2108 31.4597 27.0188 31.5184 26.9496C31.6702 26.7706 31.8489 26.6304 32.0272 26.5032C32.2927 26.3138 32.567 26.1488 32.8508 25.9649V25.965Z" fill="#828282"/>
  <path d="M37.025 23.158C37.1718 23.5467 36.9491 23.791 36.5356 23.9578C36.0449 24.1558 35.5518 24.3502 35.0217 24.5614C34.9316 24.2958 34.9306 24.1504 35.1549 23.9961C35.7115 23.6133 36.3121 23.3073 37.025 23.1579V23.158Z" fill="#828282"/>
  <path d="M24.3935 28.0702C24.5403 28.4589 24.3176 28.7032 23.904 28.8701C23.4133 29.068 22.9203 29.2625 22.3902 29.4737C22.3001 29.2081 22.299 29.0627 22.5234 28.9084C23.0799 28.5256 23.6806 28.2195 24.3935 28.0702V28.0702Z" fill="#828282"/>
  <path d="M32.3098 21.7544C32.0219 21.3868 32.1782 21.1954 32.4892 21.0457C32.933 20.8321 33.3715 20.6101 33.8222 20.4076C33.9343 20.3573 34.0845 20.368 34.2154 20.3509C34.3512 20.767 34.1975 21.0534 33.7658 21.2199C33.282 21.4064 32.7904 21.5787 32.3098 21.7544Z" fill="#828282"/>
  <path d="M28.7504 23.8596C28.5585 23.4921 28.6627 23.3007 28.87 23.151C29.1659 22.9374 29.4582 22.7154 29.7587 22.5129C29.8334 22.4626 29.9336 22.4732 30.0208 22.4561C30.1113 22.8722 30.0089 23.1587 29.7211 23.3251C29.3985 23.5117 29.0708 23.684 28.7504 23.8596Z" fill="#828282"/>
  <path d="M42.6747 16.3536C42.7056 16.5744 42.5706 16.7225 42.3721 16.8592C42.0547 17.0779 41.7542 17.3126 41.4419 17.5439C41.2184 17.3512 41.2542 17.1891 41.3875 17.0369C41.6976 16.683 42.0244 16.3405 42.5355 16.1404C42.5865 16.2162 42.6353 16.2886 42.6843 16.3611C42.6847 16.3614 42.6746 16.3536 42.6746 16.3536L42.6747 16.3536Z" fill="#828282"/>
  <path d="M27.2177 25.9649C27.3299 26.6391 27.1433 26.8431 25.9552 27.3684C25.7778 26.9744 25.793 26.891 26.1186 26.6413C26.3236 26.484 26.5322 26.3301 26.7498 26.1926C26.8947 26.1011 27.0583 26.041 27.2176 25.9649H27.2177Z" fill="#828282"/>
  <path d="M35.6712 18.7167C35.8723 18.1417 36.3585 17.9422 36.7608 17.633C36.812 17.5937 36.8741 17.5731 36.9311 17.5439C37.1338 17.8577 37.1191 18.1024 36.8612 18.3412C36.6667 18.5214 36.4633 18.6923 36.2502 18.8419C36.033 18.9944 35.8182 19.0065 35.6669 18.7098C35.6663 18.709 35.6712 18.7167 35.6712 18.7167Z" fill="#828282"/>
  <path d="M39.6464 14.0351C39.9608 14.4142 39.9602 14.5335 39.6075 14.8318C39.3742 15.0292 39.132 15.2198 38.8752 15.3864C38.7847 15.4451 38.6392 15.4235 38.5187 15.4386C38.509 15.2971 38.4345 15.1058 38.5015 15.0232C38.7138 14.7616 38.9717 14.5328 39.2267 14.3071C39.3498 14.1982 39.5058 14.1245 39.6464 14.0352L39.6464 14.0351Z" fill="#828282"/>
  <path d="M39.7608 19.6491C39.7982 19.9009 39.9476 20.1957 39.8376 20.3093C39.5812 20.574 39.2013 20.753 38.8681 20.9631C38.8097 20.9999 38.7355 21.0187 38.6518 21.0526C38.4223 20.8538 38.4005 20.6603 38.6704 20.4548C38.8204 20.3406 38.9378 20.195 39.0901 20.0835C39.2922 19.9356 39.5141 19.8072 39.7608 19.6491Z" fill="#828282"/>
  <path d="M37.1179 26.6474C37.102 26.6149 37.0861 26.5825 37.0703 26.55C37.1153 26.4316 37.1345 26.2888 37.2097 26.1993C37.5424 25.8034 37.9172 25.4627 38.4738 25.2632C38.2065 25.8119 37.9235 26.265 37.5372 26.6273C37.4552 26.7041 37.2606 26.6443 37.1179 26.6475V26.6474Z" fill="#828282"/>
  <path d="M32.4414 13.6304C32.3423 13.8016 32.2669 13.9871 32.158 14.2126C37.5318 12.687 40.0367 13.3039 43.4215 17.5439C43.9596 16.7304 44.421 15.9592 44.9538 15.243C45.9971 13.8407 47.166 12.5837 49.0001 12.1456C48.8699 12.0285 48.7786 11.9155 48.662 11.847C48.1881 11.5685 47.7326 11.22 47.2211 11.0545C46.5738 10.8452 46.0493 10.5147 45.5337 10.0713C43.6371 8.44019 41.4022 8.15506 39.0591 8.62564C36.0914 9.22168 33.9539 11.0148 32.4414 13.6304Z" fill="#1F1F1F"/>
  <path d="M12.1544 13.0324C9.63352 12.2412 7.21377 11.2109 5.08155 9.64933C3.42557 8.43649 2.17307 6.89924 1.41643 5.00367C1.39829 4.95823 1.38169 4.91229 1.40543 4.83289C1.48759 4.92237 1.56827 5.01318 1.65224 5.1009C1.73787 5.19039 1.82377 5.28 1.91487 5.36413C3.33987 6.29811 4.92842 6.85947 6.70002 7.00359C4.63078 5.70033 2.80611 4.13528 1.54472 2.03705C1.19253 1.45117 0.931179 0.813558 0.631227 0.198254C0.602917 0.140088 0.597127 0.071462 0.578918 0C2.53202 1.53171 4.62911 2.81305 6.77729 4.02135C9.77102 5.70524 12.9069 7.0898 16.2074 8.08391C18.2643 8.70337 20.3657 9.18735 22.4572 9.69269C23.9742 10.0593 25.4333 10.5377 26.7078 11.4444C28.8682 12.9815 30.0382 15.0282 30.0522 17.6594C30.0556 18.3127 30.0507 18.3137 29.41 18.5612C28.1421 19.0509 26.8086 19.2834 25.4649 19.4164C24.1135 19.5502 22.7514 19.6545 21.3945 19.6489C18.0098 19.6349 14.7319 19.0455 11.613 17.7221C8.32781 16.3281 5.80537 14.0947 3.93971 11.1367C3.89596 11.0673 3.84995 10.9991 3.80537 10.9302C3.76149 10.8625 3.71793 10.7946 3.63358 10.6635C6.38385 12.4321 9.23513 13.1023 12.1544 13.0324Z" fill="#1F1F1F"/>
  <path d="M11.8417 19.6964C12.3762 19.8563 12.9048 20.0338 13.446 20.173C15.7166 20.7574 18.0263 21.1327 20.3991 21.1677C22.0325 21.1918 23.6654 21.2058 25.2846 20.9754C26.8933 20.7464 28.4662 20.4102 29.9029 19.6937C29.9347 19.6778 29.9733 19.6723 30.0527 19.6491C29.7751 20.4653 29.3371 21.1531 28.6576 21.7112C27.5604 22.6123 26.2083 22.9878 24.7605 23.0949C20.6178 23.4016 16.7759 22.5915 13.27 20.5952C12.7801 20.3163 12.2946 20.0312 11.8071 19.749C11.8186 19.7315 11.8302 19.7139 11.8417 19.6964Z" fill="#1F1F1F"/>
  <path fill-rule="evenodd" clip-rule="evenodd" d="M16.0061 25.7516C16.0061 25.7516 16.0065 25.7516 16.0066 25.7516V25.7517C16.0066 25.7517 16.0063 25.7516 16.0061 25.7516ZM16.0061 25.7516C10.4548 25.0664 5.3205 23.2752 0.587763 20.3509C0.586825 20.3592 0.58495 20.3673 0.583262 20.375C0.579824 20.3902 0.576761 20.4037 0.581637 20.4134C0.630898 20.5128 0.680097 20.6121 0.729297 20.7114C1.21591 21.6933 1.70253 22.6753 2.19689 23.6534C2.23709 23.7329 2.33668 23.8028 2.4247 23.8363C2.57398 23.8932 2.72302 23.9509 2.87205 24.0085C3.38592 24.2074 3.90004 24.4062 4.42435 24.5739C7.81303 25.6575 11.297 25.9963 14.8416 25.8325C15.1069 25.8203 15.3718 25.7998 15.6367 25.7793C15.7598 25.7698 15.8829 25.7602 16.0061 25.7516ZM20.0515 26.8452C20.116 26.7625 20.1804 26.6798 20.2451 26.5974C20.3372 28.3044 20.2023 28.9108 19.2133 30.2933C17.3295 32.2089 15.0785 33.4599 12.364 33.8145C11.9202 33.8724 11.4753 33.9217 11.0282 33.9713H11.0281C10.8215 33.9942 10.6146 34.0171 10.4071 34.041C10.412 34.0483 10.4164 34.0564 10.4208 34.0644C10.4301 34.0817 10.4395 34.099 10.4541 34.1092C10.7526 34.3186 11.0523 34.5263 11.352 34.734L11.3524 34.7342C12.0185 35.1958 12.6846 35.6574 13.3366 36.1376C13.8603 36.5232 14.4241 36.5286 15.0151 36.4463C16.9109 36.1823 18.2696 35.7011 20.2352 34.4803C20.3635 34.3953 20.4843 34.3159 20.5997 34.24L20.6001 34.2398C21.8099 33.4445 22.4148 33.0468 24.6578 30.818L25.073 30.6284C24.1568 32.3582 23.041 33.933 21.5218 35.1841C20.0105 36.4287 18.3531 37.432 16.4049 37.8926C22.6695 37.9778 27.9735 35.5199 32.8598 31.898L20.2351 26.4232C17.4087 27.0641 14.5045 27.2915 11.6205 27.2051C8.72987 27.1185 5.91258 26.6143 3.16437 25.6673C3.75013 26.521 4.35484 27.3381 4.97411 28.1444C5.05175 28.2454 5.19804 28.3286 5.32582 28.3533C5.61057 28.4083 5.89501 28.4661 6.17952 28.5239C7.03016 28.6967 7.88136 28.8696 8.74106 28.9682C9.7578 29.0849 10.7934 29.0918 11.8191 29.0703C12.9662 29.0463 14.1145 28.966 15.2565 28.8525C15.7855 28.8 16.3097 28.6996 16.8331 28.5993C17.0668 28.5545 17.3004 28.5097 17.5343 28.4693C17.5341 28.4699 17.5341 28.471 17.5341 28.4723C17.5339 28.4769 17.5336 28.4848 17.5296 28.4882L17.516 28.4996C17.4902 28.5214 17.4642 28.5434 17.4356 28.5609C15.5248 29.7395 13.4344 30.3007 11.1893 30.3604C9.6799 30.4005 8.18168 30.3094 6.6897 30.0903C6.59136 30.0759 6.49184 30.0695 6.37162 30.0619C6.30855 30.0579 6.23984 30.0535 6.16258 30.0474C6.354 30.225 6.54073 30.3946 6.72271 30.5598C7.12043 30.9209 7.4957 31.2616 7.84891 31.6233C8.41967 32.2079 9.06295 32.5337 9.90108 32.3877C9.93378 32.3819 9.96785 32.3839 10.002 32.3857C10.0193 32.3867 10.0366 32.3877 10.0536 32.3877C11.7267 32.3849 13.331 32.059 14.8424 31.3471C16.7651 30.4417 18.2787 29.0449 19.5962 27.4217C19.7505 27.2316 19.9009 27.0385 20.0514 26.8454L20.0515 26.8452Z" fill="#1F1F1F"/>
</svg>