<svg width="20" height="20" viewBox="0 0 20 20" fill="none" xmlns="http://www.w3.org/2000/svg">
<g id="icons/feather/twitter">
<path id="Vector" d="M19.1666 2.50005C18.3686 3.06295 17.4851 3.49347 16.55 3.77505C16.0481 3.19797 15.3811 2.78896 14.6392 2.60332C13.8973 2.41768 13.1162 2.46438 12.4017 2.73709C11.6872 3.00981 11.0737 3.49538 10.6441 4.12815C10.2146 4.76091 9.98973 5.51033 9.99998 6.27505V7.10838C8.53551 7.14636 7.08437 6.82156 5.77582 6.16292C4.46727 5.50428 3.34191 4.53224 2.49998 3.33338C2.49998 3.33338 -0.833354 10.8334 6.66665 14.1667C4.95042 15.3317 2.90594 15.9158 0.833313 15.8334C8.33331 20 17.5 15.8334 17.5 6.25005C17.4992 6.01793 17.4769 5.78638 17.4333 5.55838C18.2838 4.71963 18.884 3.66064 19.1666 2.50005Z" stroke="white" stroke-width="1.5" stroke-linecap="round" stroke-linejoin="round"/>
</g>
</svg>
